<?xml version="1.0" encoding="utf-8"?>
<!-- Generator: Adobe Illustrator 26.3.1, SVG Export Plug-In . SVG Version: 6.00 Build 0)  -->
<svg version="1.1" id="Warstwa_1" xmlns="http://www.w3.org/2000/svg" xmlns:xlink="http://www.w3.org/1999/xlink" x="0px" y="0px"
	 viewBox="0 0 430 430" style="enable-background:new 0 0 430 430;" xml:space="preserve">
<style type="text/css">
	.st0{fill:url(#SVGID_1_);}
</style>
<linearGradient id="SVGID_1_" gradientUnits="userSpaceOnUse" x1="47.0237" y1="101.4687" x2="382.9713" y2="303.3264">
	<stop  offset="0" style="stop-color:#cb5eee"/>
	<stop  offset="0.3794" style="stop-color:#9D8DED"/>
	<stop  offset="1" style="stop-color:#4be1ec"/>
</linearGradient>
<path class="st0" d="M393.1,284.8c0,3.3-2.7,6-6,6H57.4l43.2,43.2c2.3,2.3,2.3,6.1,0,8.5c-1.2,1.2-2.7,1.8-4.2,1.8
	c-1.5,0-3.1-0.6-4.2-1.8l-53.4-53.4c0,0,0-0.1-0.1-0.1c-0.2-0.3-0.5-0.5-0.7-0.8c0-0.1-0.1-0.1-0.1-0.2c-0.2-0.3-0.3-0.6-0.5-0.9
	c0-0.1,0-0.1-0.1-0.2c-0.1-0.3-0.2-0.6-0.3-1c0,0,0,0,0,0c0,0,0-0.1,0-0.1c-0.1-0.3-0.1-0.6-0.1-0.9c0,0,0-0.1,0-0.1
	c0,0,0-0.1,0-0.1c0-0.3,0-0.6,0.1-0.9c0-0.1,0-0.1,0-0.2c0,0,0-0.1,0-0.1c0.1-0.3,0.1-0.6,0.2-0.8c0-0.1,0.1-0.2,0.1-0.3
	c0.1-0.2,0.2-0.5,0.4-0.7c0.1-0.1,0.2-0.2,0.2-0.4c0.1-0.2,0.3-0.4,0.5-0.6c0.1-0.1,0.1-0.1,0.1-0.2l53.4-53.4
	c2.3-2.3,6.2-2.3,8.5,0c2.3,2.3,2.3,6.2,0,8.5l-43.2,43.2h329.7C390.4,278.8,393.1,281.5,393.1,284.8z M42.9,126h329.7l-43.2,43.2
	c-2.3,2.3-2.3,6.1,0,8.5c2.3,2.3,6.1,2.3,8.5,0l53.4-53.4c0.1-0.1,0.1-0.1,0.1-0.2c0.2-0.2,0.3-0.4,0.5-0.6c0.1-0.1,0.2-0.2,0.2-0.4
	c0.1-0.2,0.3-0.5,0.4-0.7c0-0.1,0.1-0.2,0.1-0.3c0.1-0.3,0.2-0.5,0.2-0.8c0,0,0-0.1,0-0.1c0-0.1,0-0.1,0-0.2c0-0.3,0.1-0.6,0.1-0.9
	c0,0,0-0.1,0-0.1c0,0,0-0.1,0-0.1c0-0.3,0-0.6-0.1-0.9c0,0,0-0.1,0-0.1c0,0,0,0,0,0c-0.1-0.3-0.2-0.6-0.3-1c0-0.1,0-0.1-0.1-0.2
	c-0.1-0.3-0.3-0.6-0.5-0.9c0-0.1-0.1-0.1-0.1-0.2c-0.2-0.3-0.4-0.6-0.7-0.8c0,0,0-0.1-0.1-0.1l-53.4-53.4c-1.2-1.2-2.7-1.8-4.2-1.8
	c-1.5,0-3.1,0.6-4.2,1.8c-2.3,2.3-2.3,6.1,0,8.5l43.2,43.2H42.9c-3.3,0-6,2.7-6,6S39.6,126,42.9,126z"/>
</svg>
